<svg xmlns="http://www.w3.org/2000/svg" width="23" height="19" viewBox="0 0 23 19" fill="none"><path d="M21.4902 8.90771C22.0425 8.90771 22.4902 9.35543 22.4902 9.90771C22.4902 10.46 22.0425 10.9077 21.4902 10.9077V8.90771ZM1.55301 9.90771L0.8459 10.6148C0.559902 10.3288 0.474346 9.89871 0.629128 9.52503C0.783909 9.15136 1.14854 8.90771 1.55301 8.90771V9.90771ZM10.2601 17.2006C10.6506 17.5911 10.6506 18.2243 10.2601 18.6148C9.86959 19.0053 9.23643 19.0053 8.8459 18.6148L10.2601 17.2006ZM21.4902 10.9077L1.55301 10.9077V8.90771L21.4902 8.90771V10.9077ZM2.26011 9.20061L10.2601 17.2006L8.8459 18.6148L0.8459 10.6148L2.26011 9.20061Z" fill="#232425"></path><path d="M5.87451 5.08618L9.05308 1.90761" stroke="#232425" stroke-width="2" stroke-linecap="round"></path></svg>